<svg xmlns="http://www.w3.org/2000/svg" viewBox="0 0 500 100" width="500" height="100">
  <!-- Background untuk kontras -->
  <rect width="500" height="100" fill="none"/>
  
  <!-- L -->
  <g>
    <path d="M10 10 L10 80 L50 80 L50 70 L20 70 L20 10 Z" fill="#DC143C" stroke="#B8860B" stroke-width="2"/>
    <path d="M12 12 L12 82 L52 82 L52 72 L22 72 L22 12 Z" fill="#D2691E" opacity="0.6"/>
  </g>
  
  <!-- E -->
  <g>
    <path d="M60 10 L60 80 L100 80 L100 70 L70 70 L70 50 L95 50 L95 40 L70 40 L70 20 L100 20 L100 10 Z" fill="#DC143C" stroke="#B8860B" stroke-width="2"/>
    <path d="M62 12 L62 82 L102 82 L102 72 L72 72 L72 52 L97 52 L97 42 L72 42 L72 22 L102 22 L102 12 Z" fill="#D2691E" opacity="0.6"/>
  </g>
  
  <!-- Z -->
  <g>
    <path d="M110 10 L110 20 L130 20 L110 70 L110 80 L150 80 L150 70 L130 70 L150 20 L150 10 Z" fill="#DC143C" stroke="#B8860B" stroke-width="2"/>
    <path d="M112 12 L112 22 L132 22 L112 72 L112 82 L152 82 L152 72 L132 72 L152 22 L152 12 Z" fill="#D2691E" opacity="0.6"/>
  </g>
  
  <!-- A -->
  <g>
    <path d="M170 80 L170 55 L190 55 L190 80 L200 80 L200 10 L180 10 L160 80 Z M175 45 L185 45 L180 25 Z" fill="#DC143C" stroke="#B8860B" stroke-width="2"/>
    <path d="M172 82 L172 57 L192 57 L192 82 L202 82 L202 12 L182 12 L162 82 Z M177 47 L187 47 L182 27 Z" fill="#D2691E" opacity="0.6"/>
  </g>
  
  <!-- T -->
  <g>
    <path d="M210 10 L210 20 L225 20 L225 80 L235 80 L235 20 L250 20 L250 10 Z" fill="#DC143C" stroke="#B8860B" stroke-width="2"/>
    <path d="M212 12 L212 22 L227 22 L227 82 L237 82 L237 22 L252 22 L252 12 Z" fill="#D2691E" opacity="0.6"/>
  </g>
</svg>